<svg data-name="Group 12 copy" xmlns="http://www.w3.org/2000/svg" width="40" height="40" viewBox="0 0 40 40"><defs><style>.cls-1,.cls-2{fill:#307fdd;fill-rule:evenodd;}.cls-2{opacity:0.1;}</style></defs><path class="cls-1" d="M1501,70h4a1,1,0,0,1,0,2h-4A1,1,0,0,1,1501,70Zm0,4h4a1,1,0,0,1,0,2h-4A1,1,0,0,1,1501,74Zm0,8h4a1,1,0,0,1,0,2h-4A1,1,0,0,1,1501,82Zm0-4h4a1,1,0,0,1,0,2h-4A1,1,0,0,1,1501,78Zm15-7h-4V96.5a3.5,3.5,0,0,1-3.5,3.5,3.415,3.415,0,0,1-.5-0.05V100h-27V99.95a3.415,3.415,0,0,1-.5.05,3.5,3.5,0,0,1-3.5-3.5V92a1,1,0,0,1,2,0v4.5a1.5,1.5,0,0,0,1.5,1.5,1.472,1.472,0,0,0,.5-0.1V98h24.35a3.436,3.436,0,0,1-.35-1.5V93h-9a1,1,0,0,1,0-2h11v5.5a1.5,1.5,0,0,0,3,0v-33a3.436,3.436,0,0,1,.35-1.5H1487v0.1a1.472,1.472,0,0,0-.5-0.1,1.5,1.5,0,0,0-1.5,1.5V64a1,1,0,0,1-2,0V63.5a3.5,3.5,0,0,1,3.5-3.5,3.415,3.415,0,0,1,.5.05V60h26v0.05a3.415,3.415,0,0,1,.5-0.05,3.5,3.5,0,0,1,3.5,3.5V71h-1Zm-1-7.5a1.5,1.5,0,0,0-3,0V68h0v1h3V63.5ZM1497,77a9.989,9.989,0,0,1-4,7.988V92a0.964,0.964,0,0,1-.08.4,1,1,0,0,1-1.31.525l-4.6-1.852-4.62,1.852a1,1,0,0,1-1.31-.525A0.964,0.964,0,0,1,1481,92V84.988A10,10,0,1,1,1497,77Zm-14,13.54,3.61-1.446a0.982,0.982,0,0,1,.4-0.076,1,1,0,0,1,.41.076l3.58,1.442V86.162a9.969,9.969,0,0,1-8,0v4.378ZM1479,77a8,8,0,1,0,8-8A8,8,0,0,0,1479,77Zm14,0a6,6,0,1,1-6-6A6,6,0,0,1,1493,77Zm-10,0a4,4,0,1,0,4-4A4,4,0,0,0,1483,77Z" transform="translate(-1477 -60)"></path><path data-name="Rounded Rectangle 31" class="cls-2" d="M1508,99h-2V92h-3V65a3,3,0,0,1,3-3h5V96A3,3,0,0,1,1508,99Zm-19.5-17a3.5,3.5,0,1,1,3.5-3.5A3.5,3.5,0,0,1,1488.5,82ZM1503,97l1,1-25,1-1-1V95h25v2Z" transform="translate(-1477 -60)"></path></svg>